# xmcd
#
# Track frame offsets:
#       150
#       15788
#       32290
#       53968
#       73889
#       90854
#       113539
#       134786
#       156290
#       185504
#       201035
#
# Disc length: 3003 seconds
#
# Revision: 3
# Processed by: cddbd v1.5.2PL0 Copyright (c) Steve Scherf et al.
# Submitted via: FreeDbEdit v0.1
#
DISCID=870bb90b
DTITLE=Madonna - Music
DYEAR=1900
DGENRE=
TTITLE0=Music
TTITLE1=Impressive Instant
TTITLE2=Runaway Lover
TTITLE3=I Deserve It
TTITLE4=Amazing
TTITLE5=Nobody's Perfect
TTITLE6=Don't Tell Me
TTITLE7=What It Feels Like for a Girl
TTITLE8=Paradise (Not for Me)
TTITLE9=Gone
TTITLE10=American Pie
EXTD=
EXTT0=
EXTT1=
EXTT2=
EXTT3=
EXTT4=
EXTT5=
EXTT6=
EXTT7=
EXTT8=
EXTT9=
EXTT10=
PLAYORDER=
